solid CATIA STL
  facet normal  0.000000e+000  1.000000e+000  0.000000e+000
    outer loop
      vertex -3.450000e+001 -2.150000e+000  1.000000e+001
      vertex -3.350000e+001 -2.150000e+000  9.000000e+000
      vertex -3.450000e+001 -2.150000e+000  6.500000e+000
    endloop
  endfacet
  facet normal  0.000000e+000  1.000000e+000  0.000000e+000
    outer loop
      vertex -3.450000e+001 -2.150000e+000  6.500000e+000
      vertex -3.350000e+001 -2.150000e+000  9.000000e+000
      vertex -3.350000e+001 -2.150000e+000  7.500000e+000
    endloop
  endfacet
  facet normal  1.000000e+000  0.000000e+000  0.000000e+000
    outer loop
      vertex -3.350000e+001 -7.150000e+000  7.500000e+000
      vertex -3.350000e+001 -2.150000e+000  7.500000e+000
      vertex -3.350000e+001 -7.150000e+000  9.000000e+000
    endloop
  endfacet
  facet normal  1.000000e+000  -0.000000e+000  0.000000e+000
    outer loop
      vertex -3.350000e+001 -7.150000e+000  9.000000e+000
      vertex -3.350000e+001 -2.150000e+000  7.500000e+000
      vertex -3.350000e+001 -2.150000e+000  9.000000e+000
    endloop
  endfacet
  facet normal  0.000000e+000 -1.000000e+000  0.000000e+000
    outer loop
      vertex -3.350000e+001 -7.150000e+000  9.000000e+000
      vertex -3.450000e+001 -7.150000e+000  1.000000e+001
      vertex -3.350000e+001 -7.150000e+000  7.500000e+000
    endloop
  endfacet
  facet normal  -0.000000e+000 -1.000000e+000  0.000000e+000
    outer loop
      vertex -3.350000e+001 -7.150000e+000  7.500000e+000
      vertex -3.450000e+001 -7.150000e+000  1.000000e+001
      vertex -3.450000e+001 -7.150000e+000  6.500000e+000
    endloop
  endfacet
  facet normal  7.071068e-001  0.000000e+000 -7.071068e-001
    outer loop
      vertex -3.450000e+001 -7.150000e+000  6.500000e+000
      vertex -3.450000e+001 -2.150000e+000  6.500000e+000
      vertex -3.350000e+001 -7.150000e+000  7.500000e+000
    endloop
  endfacet
  facet normal  7.071068e-001  0.000000e+000 -7.071068e-001
    outer loop
      vertex -3.350000e+001 -7.150000e+000  7.500000e+000
      vertex -3.450000e+001 -2.150000e+000  6.500000e+000
      vertex -3.350000e+001 -2.150000e+000  7.500000e+000
    endloop
  endfacet
  facet normal  0.000000e+000  0.000000e+000  1.000000e+000
    outer loop
      vertex -3.630000e+001  3.850000e+000  1.000000e+001
      vertex -3.630000e+001 -1.265000e+001  1.000000e+001
      vertex -3.450000e+001 -1.265000e+001  1.000000e+001
    endloop
  endfacet
  facet normal  0.000000e+000  -0.000000e+000  1.000000e+000
    outer loop
      vertex -3.630000e+001  3.850000e+000  1.000000e+001
      vertex -3.450000e+001 -1.265000e+001  1.000000e+001
      vertex -3.450000e+001 -7.150000e+000  1.000000e+001
    endloop
  endfacet
  facet normal  0.000000e+000  -0.000000e+000  1.000000e+000
    outer loop
      vertex -3.630000e+001  3.850000e+000  1.000000e+001
      vertex -3.450000e+001 -7.150000e+000  1.000000e+001
      vertex -3.450000e+001 -2.150000e+000  1.000000e+001
    endloop
  endfacet
  facet normal  0.000000e+000  -0.000000e+000  1.000000e+000
    outer loop
      vertex -3.630000e+001  3.850000e+000  1.000000e+001
      vertex -3.450000e+001 -2.150000e+000  1.000000e+001
      vertex -3.450000e+001  3.850000e+000  1.000000e+001
    endloop
  endfacet
  facet normal  0.000000e+000 -1.000000e+000  0.000000e+000
    outer loop
      vertex -3.630000e+001 -1.265000e+001  1.000000e+001
      vertex -3.630000e+001 -1.265000e+001  5.000000e+000
      vertex -3.450000e+001 -1.265000e+001  1.000000e+001
    endloop
  endfacet
  facet normal  0.000000e+000 -1.000000e+000  -0.000000e+000
    outer loop
      vertex -3.450000e+001 -1.265000e+001  1.000000e+001
      vertex -3.630000e+001 -1.265000e+001  5.000000e+000
      vertex -3.450000e+001 -1.265000e+001  5.000000e+000
    endloop
  endfacet
  facet normal  1.000000e+000  0.000000e+000  0.000000e+000
    outer loop
      vertex -3.450000e+001 -1.265000e+001  5.000000e+000
      vertex -3.450000e+001 -7.150000e+000  1.000000e+001
      vertex -3.450000e+001 -1.265000e+001  1.000000e+001
    endloop
  endfacet
  facet normal  1.000000e+000  0.000000e+000  0.000000e+000
    outer loop
      vertex -3.450000e+001 -7.150000e+000  1.000000e+001
      vertex -3.450000e+001 -1.265000e+001  5.000000e+000
      vertex -3.450000e+001 -7.150000e+000  6.500000e+000
    endloop
  endfacet
  facet normal  1.000000e+000  0.000000e+000  0.000000e+000
    outer loop
      vertex -3.450000e+001 -7.150000e+000  6.500000e+000
      vertex -3.450000e+001 -1.265000e+001  5.000000e+000
      vertex -3.450000e+001  3.850000e+000  5.000000e+000
    endloop
  endfacet
  facet normal  1.000000e+000  0.000000e+000  0.000000e+000
    outer loop
      vertex -3.450000e+001 -7.150000e+000  6.500000e+000
      vertex -3.450000e+001  3.850000e+000  5.000000e+000
      vertex -3.450000e+001 -2.150000e+000  6.500000e+000
    endloop
  endfacet
  facet normal  1.000000e+000  -0.000000e+000  0.000000e+000
    outer loop
      vertex -3.450000e+001 -2.150000e+000  6.500000e+000
      vertex -3.450000e+001  3.850000e+000  5.000000e+000
      vertex -3.450000e+001  3.850000e+000  1.000000e+001
    endloop
  endfacet
  facet normal  1.000000e+000  0.000000e+000  0.000000e+000
    outer loop
      vertex -3.450000e+001 -2.150000e+000  6.500000e+000
      vertex -3.450000e+001  3.850000e+000  1.000000e+001
      vertex -3.450000e+001 -2.150000e+000  1.000000e+001
    endloop
  endfacet
  facet normal  0.000000e+000  1.000000e+000  0.000000e+000
    outer loop
      vertex -3.630000e+001  3.850000e+000  5.000000e+000
      vertex -3.630000e+001  3.850000e+000  1.000000e+001
      vertex -3.450000e+001  3.850000e+000  5.000000e+000
    endloop
  endfacet
  facet normal  0.000000e+000  1.000000e+000  -0.000000e+000
    outer loop
      vertex -3.450000e+001  3.850000e+000  5.000000e+000
      vertex -3.630000e+001  3.850000e+000  1.000000e+001
      vertex -3.450000e+001  3.850000e+000  1.000000e+001
    endloop
  endfacet
  facet normal  7.071068e-001  -0.000000e+000  7.071068e-001
    outer loop
      vertex -3.450000e+001 -2.150000e+000  1.000000e+001
      vertex -3.450000e+001 -7.150000e+000  1.000000e+001
      vertex -3.350000e+001 -2.150000e+000  9.000000e+000
    endloop
  endfacet
  facet normal  7.071068e-001  0.000000e+000  7.071068e-001
    outer loop
      vertex -3.350000e+001 -2.150000e+000  9.000000e+000
      vertex -3.450000e+001 -7.150000e+000  1.000000e+001
      vertex -3.350000e+001 -7.150000e+000  9.000000e+000
    endloop
  endfacet
  facet normal  0.000000e+000  0.000000e+000  1.000000e+000
    outer loop
      vertex  3.380000e+001 -2.865000e+001  1.000000e+001
      vertex  3.380000e+001 -2.532843e+001  1.000000e+001
      vertex  3.200000e+001 -2.458284e+001  1.000000e+001
    endloop
  endfacet
  facet normal  0.000000e+000  0.000000e+000  1.000000e+000
    outer loop
      vertex  3.380000e+001 -2.865000e+001  1.000000e+001
      vertex  3.200000e+001 -2.458284e+001  1.000000e+001
      vertex  3.200000e+001 -2.685000e+001  1.000000e+001
    endloop
  endfacet
  facet normal  0.000000e+000  0.000000e+000  1.000000e+000
    outer loop
      vertex  3.380000e+001 -2.865000e+001  1.000000e+001
      vertex  3.200000e+001 -2.685000e+001  1.000000e+001
      vertex  3.500000e+000 -2.685000e+001  1.000000e+001
    endloop
  endfacet
  facet normal  0.000000e+000  0.000000e+000  1.000000e+000
    outer loop
      vertex  3.380000e+001 -2.865000e+001  1.000000e+001
      vertex  3.500000e+000 -2.685000e+001  1.000000e+001
      vertex -1.500000e+000 -2.685000e+001  1.000000e+001
    endloop
  endfacet
  facet normal  0.000000e+000  0.000000e+000  1.000000e+000
    outer loop
      vertex  3.380000e+001 -2.865000e+001  1.000000e+001
      vertex -1.500000e+000 -2.685000e+001  1.000000e+001
      vertex -3.450000e+001 -2.685000e+001  1.000000e+001
    endloop
  endfacet
  facet normal  0.000000e+000  0.000000e+000  1.000000e+000
    outer loop
      vertex  3.380000e+001 -2.865000e+001  1.000000e+001
      vertex -3.450000e+001 -2.685000e+001  1.000000e+001
      vertex -3.630000e+001 -2.865000e+001  1.000000e+001
    endloop
  endfacet
  facet normal  0.000000e+000  0.000000e+000  9.999999e-001
    outer loop
      vertex  3.630000e+001  1.197843e+001  1.000000e+001
      vertex  3.380000e+001  1.447843e+001  1.000000e+001
      vertex  3.200000e+001  1.373284e+001  1.000000e+001
    endloop
  endfacet
  facet normal  0.000000e+000  0.000000e+000  9.999999e-001
    outer loop
      vertex  3.630000e+001  1.197843e+001  1.000000e+001
      vertex  3.200000e+001  1.373284e+001  1.000000e+001
      vertex  3.450000e+001  1.123284e+001  1.000000e+001
    endloop
  endfacet
  facet normal  -0.000000e+000  0.000000e+000  1.000000e+000
    outer loop
      vertex  3.630000e+001  1.197843e+001  1.000000e+001
      vertex  3.450000e+001  1.123284e+001  1.000000e+001
      vertex  3.450000e+001 -2.828427e+000  1.000000e+001
    endloop
  endfacet
  facet normal  -0.000000e+000  0.000000e+000  1.000000e+000
    outer loop
      vertex  3.630000e+001  1.197843e+001  1.000000e+001
      vertex  3.450000e+001 -2.828427e+000  1.000000e+001
      vertex  3.450000e+001 -7.828427e+000  1.000000e+001
    endloop
  endfacet
  facet normal  -0.000000e+000  0.000000e+000  1.000000e+000
    outer loop
      vertex  3.630000e+001  1.197843e+001  1.000000e+001
      vertex  3.450000e+001 -7.828427e+000  1.000000e+001
      vertex  3.450000e+001 -2.208284e+001  1.000000e+001
    endloop
  endfacet
  facet normal  -0.000000e+000  0.000000e+000  1.000000e+000
    outer loop
      vertex  3.630000e+001  1.197843e+001  1.000000e+001
      vertex  3.450000e+001 -2.208284e+001  1.000000e+001
      vertex  3.630000e+001 -2.282843e+001  1.000000e+001
    endloop
  endfacet
  facet normal  0.000000e+000  0.000000e+000  1.000000e+000
    outer loop
      vertex -3.630000e+001  2.865000e+001  1.000000e+001
      vertex -3.630000e+001  1.885000e+001  1.000000e+001
      vertex -3.450000e+001  1.885000e+001  1.000000e+001
    endloop
  endfacet
  facet normal  0.000000e+000  -0.000000e+000  1.000000e+000
    outer loop
      vertex -3.630000e+001  2.865000e+001  1.000000e+001
      vertex -3.450000e+001  1.885000e+001  1.000000e+001
      vertex -3.450000e+001  2.685000e+001  1.000000e+001
    endloop
  endfacet
  facet normal  0.000000e+000  -0.000000e+000  1.000000e+000
    outer loop
      vertex -3.630000e+001  2.865000e+001  1.000000e+001
      vertex -3.450000e+001  2.685000e+001  1.000000e+001
      vertex -1.500000e+000  2.685000e+001  1.000000e+001
    endloop
  endfacet
  facet normal  0.000000e+000  -0.000000e+000  1.000000e+000
    outer loop
      vertex -3.630000e+001  2.865000e+001  1.000000e+001
      vertex -1.500000e+000  2.685000e+001  1.000000e+001
      vertex  3.500000e+000  2.685000e+001  1.000000e+001
    endloop
  endfacet
  facet normal  0.000000e+000  -0.000000e+000  1.000000e+000
    outer loop
      vertex -3.630000e+001  2.865000e+001  1.000000e+001
      vertex  3.500000e+000  2.685000e+001  1.000000e+001
      vertex  3.038284e+001  2.685000e+001  1.000000e+001
    endloop
  endfacet
  facet normal  0.000000e+000  -0.000000e+000  1.000000e+000
    outer loop
      vertex -3.630000e+001  2.865000e+001  1.000000e+001
      vertex  3.038284e+001  2.685000e+001  1.000000e+001
      vertex  3.112843e+001  2.865000e+001  1.000000e+001
    endloop
  endfacet
  facet normal  0.000000e+000  0.000000e+000  1.000000e+000
    outer loop
      vertex -3.630000e+001 -2.445000e+001  1.000000e+001
      vertex -3.630000e+001 -2.865000e+001  1.000000e+001
      vertex -3.450000e+001 -2.445000e+001  1.000000e+001
    endloop
  endfacet
  facet normal  0.000000e+000  0.000000e+000  1.000000e+000
    outer loop
      vertex -3.450000e+001 -2.445000e+001  1.000000e+001
      vertex -3.630000e+001 -2.865000e+001  1.000000e+001
      vertex -3.450000e+001 -2.685000e+001  1.000000e+001
    endloop
  endfacet
  facet normal  0.000000e+000  -0.000000e+000  9.999999e-001
    outer loop
      vertex  3.200000e+001 -2.458284e+001  1.000000e+001
      vertex  3.380000e+001 -2.532843e+001  1.000000e+001
      vertex  3.450000e+001 -2.208284e+001  1.000000e+001
    endloop
  endfacet
  facet normal  0.000000e+000  0.000000e+000  9.999999e-001
    outer loop
      vertex  3.450000e+001 -2.208284e+001  1.000000e+001
      vertex  3.380000e+001 -2.532843e+001  1.000000e+001
      vertex  3.630000e+001 -2.282843e+001  1.000000e+001
    endloop
  endfacet
  facet normal  0.000000e+000  0.000000e+000  1.000000e+000
    outer loop
      vertex  3.380000e+001  1.447843e+001  1.000000e+001
      vertex  3.380000e+001  2.597843e+001  1.000000e+001
      vertex  3.200000e+001  1.373284e+001  1.000000e+001
    endloop
  endfacet
  facet normal  0.000000e+000  0.000000e+000  1.000000e+000
    outer loop
      vertex  3.200000e+001  1.373284e+001  1.000000e+001
      vertex  3.380000e+001  2.597843e+001  1.000000e+001
      vertex  3.200000e+001  2.523284e+001  1.000000e+001
    endloop
  endfacet
  facet normal  0.000000e+000  0.000000e+000  1.000000e+000
    outer loop
      vertex  3.380000e+001  2.597843e+001  1.000000e+001
      vertex  3.112843e+001  2.865000e+001  1.000000e+001
      vertex  3.200000e+001  2.523284e+001  1.000000e+001
    endloop
  endfacet
  facet normal  0.000000e+000  0.000000e+000  1.000000e+000
    outer loop
      vertex  3.200000e+001  2.523284e+001  1.000000e+001
      vertex  3.112843e+001  2.865000e+001  1.000000e+001
      vertex  3.038284e+001  2.685000e+001  1.000000e+001
    endloop
  endfacet
  facet normal  1.000000e+000  0.000000e+000  0.000000e+000
    outer loop
      vertex  3.500000e+000 -2.685000e+001  6.500000e+000
      vertex  3.500000e+000 -2.585000e+001  7.500000e+000
      vertex  3.500000e+000 -2.685000e+001  1.000000e+001
    endloop
  endfacet
  facet normal  1.000000e+000  0.000000e+000  0.000000e+000
    outer loop
      vertex  3.500000e+000 -2.685000e+001  1.000000e+001
      vertex  3.500000e+000 -2.585000e+001  7.500000e+000
      vertex  3.500000e+000 -2.585000e+001  9.000000e+000
    endloop
  endfacet
  facet normal  0.000000e+000  1.000000e+000  0.000000e+000
    outer loop
      vertex -1.500000e+000 -2.585000e+001  7.500000e+000
      vertex -1.500000e+000 -2.585000e+001  9.000000e+000
      vertex  3.500000e+000 -2.585000e+001  7.500000e+000
    endloop
  endfacet
  facet normal  0.000000e+000  1.000000e+000  -0.000000e+000
    outer loop
      vertex  3.500000e+000 -2.585000e+001  7.500000e+000
      vertex -1.500000e+000 -2.585000e+001  9.000000e+000
      vertex  3.500000e+000 -2.585000e+001  9.000000e+000
    endloop
  endfacet
  facet normal -1.000000e+000  0.000000e+000  0.000000e+000
    outer loop
      vertex -1.500000e+000 -2.585000e+001  7.500000e+000
      vertex -1.500000e+000 -2.685000e+001  6.500000e+000
      vertex -1.500000e+000 -2.585000e+001  9.000000e+000
    endloop
  endfacet
  facet normal -1.000000e+000  -0.000000e+000  0.000000e+000
    outer loop
      vertex -1.500000e+000 -2.585000e+001  9.000000e+000
      vertex -1.500000e+000 -2.685000e+001  6.500000e+000
      vertex -1.500000e+000 -2.685000e+001  1.000000e+001
    endloop
  endfacet
  facet normal -1.000000e+000  -0.000000e+000  0.000000e+000
    outer loop
      vertex  3.200000e+001 -2.685000e+001  1.000000e+001
      vertex  3.200000e+001 -2.458284e+001  1.000000e+001
      vertex  3.200000e+001 -2.685000e+001  5.000000e+000
    endloop
  endfacet
  facet normal -1.000000e+000  0.000000e+000  0.000000e+000
    outer loop
      vertex  3.200000e+001 -2.685000e+001  5.000000e+000
      vertex  3.200000e+001 -2.458284e+001  1.000000e+001
      vertex  3.200000e+001 -2.458284e+001  5.000000e+000
    endloop
  endfacet
  facet normal  9.999999e-001  -0.000000e+000  0.000000e+000
    outer loop
      vertex -3.450000e+001 -2.445000e+001  1.000000e+001
      vertex -3.450000e+001 -2.685000e+001  1.000000e+001
      vertex -3.450000e+001 -2.445000e+001  5.000000e+000
    endloop
  endfacet
  facet normal  9.999999e-001  0.000000e+000  0.000000e+000
    outer loop
      vertex -3.450000e+001 -2.445000e+001  5.000000e+000
      vertex -3.450000e+001 -2.685000e+001  1.000000e+001
      vertex -3.450000e+001 -2.685000e+001  5.000000e+000
    endloop
  endfacet
  facet normal  0.000000e+000  7.071068e-001  7.071068e-001
    outer loop
      vertex -1.500000e+000 -2.585000e+001  9.000000e+000
      vertex -1.500000e+000 -2.685000e+001  1.000000e+001
      vertex  3.500000e+000 -2.585000e+001  9.000000e+000
    endloop
  endfacet
  facet normal  0.000000e+000  7.071068e-001  7.071068e-001
    outer loop
      vertex  3.500000e+000 -2.585000e+001  9.000000e+000
      vertex -1.500000e+000 -2.685000e+001  1.000000e+001
      vertex  3.500000e+000 -2.685000e+001  1.000000e+001
    endloop
  endfacet
  facet normal  0.000000e+000 -1.000000e+000  0.000000e+000
    outer loop
      vertex  3.450000e+001 -7.828427e+000  1.000000e+001
      vertex  3.350000e+001 -7.828427e+000  9.000000e+000
      vertex  3.450000e+001 -7.828427e+000  6.500000e+000
    endloop
  endfacet
  facet normal  0.000000e+000 -1.000000e+000  0.000000e+000
    outer loop
      vertex  3.450000e+001 -7.828427e+000  6.500000e+000
      vertex  3.350000e+001 -7.828427e+000  9.000000e+000
      vertex  3.350000e+001 -7.828427e+000  7.500000e+000
    endloop
  endfacet
  facet normal  0.000000e+000  1.000000e+000  0.000000e+000
    outer loop
      vertex  3.350000e+001 -2.828427e+000  9.000000e+000
      vertex  3.450000e+001 -2.828427e+000  1.000000e+001
      vertex  3.350000e+001 -2.828427e+000  7.500000e+000
    endloop
  endfacet
  facet normal  -0.000000e+000  1.000000e+000  0.000000e+000
    outer loop
      vertex  3.350000e+001 -2.828427e+000  7.500000e+000
      vertex  3.450000e+001 -2.828427e+000  1.000000e+001
      vertex  3.450000e+001 -2.828427e+000  6.500000e+000
    endloop
  endfacet
  facet normal -1.000000e+000  0.000000e+000  0.000000e+000
    outer loop
      vertex  3.350000e+001 -2.828427e+000  7.500000e+000
      vertex  3.350000e+001 -7.828427e+000  7.500000e+000
      vertex  3.350000e+001 -2.828427e+000  9.000000e+000
    endloop
  endfacet
  facet normal -1.000000e+000  -0.000000e+000  0.000000e+000
    outer loop
      vertex  3.350000e+001 -2.828427e+000  9.000000e+000
      vertex  3.350000e+001 -7.828427e+000  7.500000e+000
      vertex  3.350000e+001 -7.828427e+000  9.000000e+000
    endloop
  endfacet
  facet normal -7.071068e-001 -7.071068e-001  -0.000000e+000
    outer loop
      vertex  3.450000e+001  1.123284e+001  5.000000e+000
      vertex  3.450000e+001  1.123284e+001  1.000000e+001
      vertex  3.200000e+001  1.373284e+001  5.000000e+000
    endloop
  endfacet
  facet normal -7.071068e-001 -7.071068e-001  0.000000e+000
    outer loop
      vertex  3.200000e+001  1.373284e+001  5.000000e+000
      vertex  3.450000e+001  1.123284e+001  1.000000e+001
      vertex  3.200000e+001  1.373284e+001  1.000000e+001
    endloop
  endfacet
  facet normal -7.071068e-001  7.071068e-001  0.000000e+000
    outer loop
      vertex  3.200000e+001 -2.458284e+001  5.000000e+000
      vertex  3.200000e+001 -2.458284e+001  1.000000e+001
      vertex  3.450000e+001 -2.208284e+001  5.000000e+000
    endloop
  endfacet
  facet normal -7.071068e-001  7.071068e-001  0.000000e+000
    outer loop
      vertex  3.450000e+001 -2.208284e+001  5.000000e+000
      vertex  3.200000e+001 -2.458284e+001  1.000000e+001
      vertex  3.450000e+001 -2.208284e+001  1.000000e+001
    endloop
  endfacet
  facet normal -7.071068e-001  0.000000e+000  7.071068e-001
    outer loop
      vertex  3.350000e+001 -2.828427e+000  9.000000e+000
      vertex  3.350000e+001 -7.828427e+000  9.000000e+000
      vertex  3.450000e+001 -2.828427e+000  1.000000e+001
    endloop
  endfacet
  facet normal -7.071068e-001  0.000000e+000  7.071068e-001
    outer loop
      vertex  3.450000e+001 -2.828427e+000  1.000000e+001
      vertex  3.350000e+001 -7.828427e+000  9.000000e+000
      vertex  3.450000e+001 -7.828427e+000  1.000000e+001
    endloop
  endfacet
  facet normal  1.000000e+000  0.000000e+000  0.000000e+000
    outer loop
      vertex  3.500000e+000  2.585000e+001  7.500000e+000
      vertex  3.500000e+000  2.685000e+001  6.500000e+000
      vertex  3.500000e+000  2.585000e+001  9.000000e+000
    endloop
  endfacet
  facet normal  1.000000e+000  -0.000000e+000  0.000000e+000
    outer loop
      vertex  3.500000e+000  2.585000e+001  9.000000e+000
      vertex  3.500000e+000  2.685000e+001  6.500000e+000
      vertex  3.500000e+000  2.685000e+001  1.000000e+001
    endloop
  endfacet
  facet normal  0.000000e+000 -1.000000e+000  -0.000000e+000
    outer loop
      vertex  3.500000e+000  2.585000e+001  7.500000e+000
      vertex  3.500000e+000  2.585000e+001  9.000000e+000
      vertex -1.500000e+000  2.585000e+001  7.500000e+000
    endloop
  endfacet
  facet normal  0.000000e+000 -1.000000e+000  0.000000e+000
    outer loop
      vertex -1.500000e+000  2.585000e+001  7.500000e+000
      vertex  3.500000e+000  2.585000e+001  9.000000e+000
      vertex -1.500000e+000  2.585000e+001  9.000000e+000
    endloop
  endfacet
  facet normal -1.000000e+000  0.000000e+000  0.000000e+000
    outer loop
      vertex -1.500000e+000  2.685000e+001  6.500000e+000
      vertex -1.500000e+000  2.585000e+001  7.500000e+000
      vertex -1.500000e+000  2.685000e+001  1.000000e+001
    endloop
  endfacet
  facet normal -1.000000e+000  0.000000e+000  0.000000e+000
    outer loop
      vertex -1.500000e+000  2.685000e+001  1.000000e+001
      vertex -1.500000e+000  2.585000e+001  7.500000e+000
      vertex -1.500000e+000  2.585000e+001  9.000000e+000
    endloop
  endfacet
  facet normal  1.000000e+000  -0.000000e+000  0.000000e+000
    outer loop
      vertex -3.450000e+001  2.685000e+001  1.000000e+001
      vertex -3.450000e+001  1.885000e+001  1.000000e+001
      vertex -3.450000e+001  2.685000e+001  5.000000e+000
    endloop
  endfacet
  facet normal  1.000000e+000  0.000000e+000  0.000000e+000
    outer loop
      vertex -3.450000e+001  2.685000e+001  5.000000e+000
      vertex -3.450000e+001  1.885000e+001  1.000000e+001
      vertex -3.450000e+001  1.885000e+001  5.000000e+000
    endloop
  endfacet
  facet normal -7.071068e-001 -7.071068e-001  -0.000000e+000
    outer loop
      vertex  3.200000e+001  2.523284e+001  5.000000e+000
      vertex  3.200000e+001  2.523284e+001  1.000000e+001
      vertex  3.038284e+001  2.685000e+001  5.000000e+000
    endloop
  endfacet
  facet normal -7.071068e-001 -7.071068e-001  0.000000e+000
    outer loop
      vertex  3.038284e+001  2.685000e+001  5.000000e+000
      vertex  3.200000e+001  2.523284e+001  1.000000e+001
      vertex  3.038284e+001  2.685000e+001  1.000000e+001
    endloop
  endfacet
  facet normal  0.000000e+000 -7.071068e-001  7.071068e-001
    outer loop
      vertex  3.500000e+000  2.585000e+001  9.000000e+000
      vertex  3.500000e+000  2.685000e+001  1.000000e+001
      vertex -1.500000e+000  2.585000e+001  9.000000e+000
    endloop
  endfacet
  facet normal  0.000000e+000 -7.071068e-001  7.071068e-001
    outer loop
      vertex -1.500000e+000  2.585000e+001  9.000000e+000
      vertex  3.500000e+000  2.685000e+001  1.000000e+001
      vertex -1.500000e+000  2.685000e+001  1.000000e+001
    endloop
  endfacet
  facet normal  -0.000000e+000  1.000000e+000  0.000000e+000
    outer loop
      vertex  3.200000e+001 -2.685000e+001  5.000000e+000
      vertex  3.500000e+000 -2.685000e+001  1.000000e+001
      vertex  3.200000e+001 -2.685000e+001  1.000000e+001
    endloop
  endfacet
  facet normal  0.000000e+000  1.000000e+000  0.000000e+000
    outer loop
      vertex  3.500000e+000 -2.685000e+001  1.000000e+001
      vertex  3.200000e+001 -2.685000e+001  5.000000e+000
      vertex  3.500000e+000 -2.685000e+001  6.500000e+000
    endloop
  endfacet
  facet normal  0.000000e+000  1.000000e+000  0.000000e+000
    outer loop
      vertex  3.500000e+000 -2.685000e+001  6.500000e+000
      vertex  3.200000e+001 -2.685000e+001  5.000000e+000
      vertex -3.450000e+001 -2.685000e+001  5.000000e+000
    endloop
  endfacet
  facet normal  0.000000e+000  1.000000e+000  0.000000e+000
    outer loop
      vertex  3.500000e+000 -2.685000e+001  6.500000e+000
      vertex -3.450000e+001 -2.685000e+001  5.000000e+000
      vertex -1.500000e+000 -2.685000e+001  6.500000e+000
    endloop
  endfacet
  facet normal  0.000000e+000  9.999999e-001  0.000000e+000
    outer loop
      vertex -1.500000e+000 -2.685000e+001  6.500000e+000
      vertex -3.450000e+001 -2.685000e+001  5.000000e+000
      vertex -3.450000e+001 -2.685000e+001  1.000000e+001
    endloop
  endfacet
  facet normal  -0.000000e+000  1.000000e+000  0.000000e+000
    outer loop
      vertex -1.500000e+000 -2.685000e+001  6.500000e+000
      vertex -3.450000e+001 -2.685000e+001  1.000000e+001
      vertex -1.500000e+000 -2.685000e+001  1.000000e+001
    endloop
  endfacet
  facet normal  0.000000e+000  7.071068e-001 -7.071068e-001
    outer loop
      vertex  3.500000e+000 -2.585000e+001  7.500000e+000
      vertex  3.500000e+000 -2.685000e+001  6.500000e+000
      vertex -1.500000e+000 -2.585000e+001  7.500000e+000
    endloop
  endfacet
  facet normal  0.000000e+000  7.071068e-001 -7.071068e-001
    outer loop
      vertex -1.500000e+000 -2.585000e+001  7.500000e+000
      vertex  3.500000e+000 -2.685000e+001  6.500000e+000
      vertex -1.500000e+000 -2.685000e+001  6.500000e+000
    endloop
  endfacet
  facet normal -9.999999e-001  0.000000e+000  0.000000e+000
    outer loop
      vertex  3.450000e+001  1.123284e+001  5.000000e+000
      vertex  3.450000e+001 -2.828427e+000  1.000000e+001
      vertex  3.450000e+001  1.123284e+001  1.000000e+001
    endloop
  endfacet
  facet normal -1.000000e+000  0.000000e+000  0.000000e+000
    outer loop
      vertex  3.450000e+001 -2.828427e+000  1.000000e+001
      vertex  3.450000e+001  1.123284e+001  5.000000e+000
      vertex  3.450000e+001 -2.828427e+000  6.500000e+000
    endloop
  endfacet
  facet normal -9.999999e-001  0.000000e+000  -0.000000e+000
    outer loop
      vertex  3.450000e+001 -2.828427e+000  6.500000e+000
      vertex  3.450000e+001  1.123284e+001  5.000000e+000
      vertex  3.450000e+001 -2.208284e+001  5.000000e+000
    endloop
  endfacet
  facet normal -1.000000e+000  0.000000e+000  0.000000e+000
    outer loop
      vertex  3.450000e+001 -2.828427e+000  6.500000e+000
      vertex  3.450000e+001 -2.208284e+001  5.000000e+000
      vertex  3.450000e+001 -7.828427e+000  6.500000e+000
    endloop
  endfacet
  facet normal -1.000000e+000  -0.000000e+000  0.000000e+000
    outer loop
      vertex  3.450000e+001 -7.828427e+000  6.500000e+000
      vertex  3.450000e+001 -2.208284e+001  5.000000e+000
      vertex  3.450000e+001 -2.208284e+001  1.000000e+001
    endloop
  endfacet
  facet normal -1.000000e+000  0.000000e+000  0.000000e+000
    outer loop
      vertex  3.450000e+001 -7.828427e+000  6.500000e+000
      vertex  3.450000e+001 -2.208284e+001  1.000000e+001
      vertex  3.450000e+001 -7.828427e+000  1.000000e+001
    endloop
  endfacet
  facet normal -7.071068e-001  -0.000000e+000 -7.071068e-001
    outer loop
      vertex  3.350000e+001 -7.828427e+000  7.500000e+000
      vertex  3.350000e+001 -2.828427e+000  7.500000e+000
      vertex  3.450000e+001 -7.828427e+000  6.500000e+000
    endloop
  endfacet
  facet normal -7.071068e-001  0.000000e+000 -7.071068e-001
    outer loop
      vertex  3.450000e+001 -7.828427e+000  6.500000e+000
      vertex  3.350000e+001 -2.828427e+000  7.500000e+000
      vertex  3.450000e+001 -2.828427e+000  6.500000e+000
    endloop
  endfacet
  facet normal  -0.000000e+000 -9.999999e-001  0.000000e+000
    outer loop
      vertex -3.450000e+001  2.685000e+001  5.000000e+000
      vertex -1.500000e+000  2.685000e+001  1.000000e+001
      vertex -3.450000e+001  2.685000e+001  1.000000e+001
    endloop
  endfacet
  facet normal  0.000000e+000 -1.000000e+000  0.000000e+000
    outer loop
      vertex -1.500000e+000  2.685000e+001  1.000000e+001
      vertex -3.450000e+001  2.685000e+001  5.000000e+000
      vertex -1.500000e+000  2.685000e+001  6.500000e+000
    endloop
  endfacet
  facet normal  0.000000e+000 -1.000000e+000  -0.000000e+000
    outer loop
      vertex -1.500000e+000  2.685000e+001  6.500000e+000
      vertex -3.450000e+001  2.685000e+001  5.000000e+000
      vertex  3.038284e+001  2.685000e+001  5.000000e+000
    endloop
  endfacet
  facet normal  0.000000e+000 -1.000000e+000  0.000000e+000
    outer loop
      vertex -1.500000e+000  2.685000e+001  6.500000e+000
      vertex  3.038284e+001  2.685000e+001  5.000000e+000
      vertex  3.500000e+000  2.685000e+001  6.500000e+000
    endloop
  endfacet
  facet normal  0.000000e+000 -1.000000e+000  0.000000e+000
    outer loop
      vertex  3.500000e+000  2.685000e+001  6.500000e+000
      vertex  3.038284e+001  2.685000e+001  5.000000e+000
      vertex  3.038284e+001  2.685000e+001  1.000000e+001
    endloop
  endfacet
  facet normal  -0.000000e+000 -1.000000e+000  0.000000e+000
    outer loop
      vertex  3.500000e+000  2.685000e+001  6.500000e+000
      vertex  3.038284e+001  2.685000e+001  1.000000e+001
      vertex  3.500000e+000  2.685000e+001  1.000000e+001
    endloop
  endfacet
  facet normal  0.000000e+000 -7.071068e-001 -7.071068e-001
    outer loop
      vertex -1.500000e+000  2.585000e+001  7.500000e+000
      vertex -1.500000e+000  2.685000e+001  6.500000e+000
      vertex  3.500000e+000  2.585000e+001  7.500000e+000
    endloop
  endfacet
  facet normal  0.000000e+000 -7.071068e-001 -7.071068e-001
    outer loop
      vertex  3.500000e+000  2.585000e+001  7.500000e+000
      vertex -1.500000e+000  2.685000e+001  6.500000e+000
      vertex  3.500000e+000  2.685000e+001  6.500000e+000
    endloop
  endfacet
  facet normal  0.000000e+000  0.000000e+000  1.000000e+000
    outer loop
      vertex -3.630000e+001 -2.445000e+001  5.000000e+000
      vertex -3.450000e+001 -2.445000e+001  5.000000e+000
      vertex -3.630000e+001 -1.265000e+001  5.000000e+000
    endloop
  endfacet
  facet normal  0.000000e+000  0.000000e+000  1.000000e+000
    outer loop
      vertex  3.200000e+001  2.523284e+001  5.000000e+000
      vertex  3.038284e+001  2.685000e+001  5.000000e+000
      vertex  2.988579e+001  2.565000e+001  5.000000e+000
    endloop
  endfacet
  facet normal  0.000000e+000  0.000000e+000  1.000000e+000
    outer loop
      vertex  3.200000e+001  2.523284e+001  5.000000e+000
      vertex  2.988579e+001  2.565000e+001  5.000000e+000
      vertex  3.080000e+001  2.473579e+001  5.000000e+000
    endloop
  endfacet
  facet normal  -0.000000e+000  0.000000e+000  1.000000e+000
    outer loop
      vertex  3.200000e+001  2.523284e+001  5.000000e+000
      vertex  3.080000e+001  2.473579e+001  5.000000e+000
      vertex  3.080000e+001  1.323579e+001  5.000000e+000
    endloop
  endfacet
  facet normal  0.000000e+000  0.000000e+000  9.999999e-001
    outer loop
      vertex  3.200000e+001  2.523284e+001  5.000000e+000
      vertex  3.080000e+001  1.323579e+001  5.000000e+000
      vertex  3.200000e+001  1.373284e+001  5.000000e+000
    endloop
  endfacet
  facet normal  0.000000e+000  0.000000e+000  9.999999e-001
    outer loop
      vertex -3.330000e+001 -2.565000e+001  5.000000e+000
      vertex -3.330000e+001  2.565000e+001  5.000000e+000
      vertex -3.450000e+001  1.885000e+001  5.000000e+000
    endloop
  endfacet
  facet normal  0.000000e+000  0.000000e+000  1.000000e+000
    outer loop
      vertex -3.330000e+001 -2.565000e+001  5.000000e+000
      vertex -3.450000e+001  1.885000e+001  5.000000e+000
      vertex -3.450000e+001  3.850000e+000  5.000000e+000
    endloop
  endfacet
  facet normal  0.000000e+000  0.000000e+000  1.000000e+000
    outer loop
      vertex -3.330000e+001 -2.565000e+001  5.000000e+000
      vertex -3.450000e+001  3.850000e+000  5.000000e+000
      vertex -3.450000e+001 -1.265000e+001  5.000000e+000
    endloop
  endfacet
  facet normal  0.000000e+000  0.000000e+000  1.000000e+000
    outer loop
      vertex -3.330000e+001 -2.565000e+001  5.000000e+000
      vertex -3.450000e+001 -1.265000e+001  5.000000e+000
      vertex -3.630000e+001 -1.265000e+001  5.000000e+000
    endloop
  endfacet
  facet normal  0.000000e+000  0.000000e+000  1.000000e+000
    outer loop
      vertex -3.330000e+001 -2.565000e+001  5.000000e+000
      vertex -3.630000e+001 -1.265000e+001  5.000000e+000
      vertex -3.450000e+001 -2.445000e+001  5.000000e+000
    endloop
  endfacet
  facet normal  0.000000e+000  0.000000e+000  1.000000e+000
    outer loop
      vertex -3.330000e+001 -2.565000e+001  5.000000e+000
      vertex -3.450000e+001 -2.445000e+001  5.000000e+000
      vertex -3.450000e+001 -2.685000e+001  5.000000e+000
    endloop
  endfacet
  facet normal  0.000000e+000  0.000000e+000  1.000000e+000
    outer loop
      vertex -3.330000e+001 -2.565000e+001  5.000000e+000
      vertex -3.450000e+001 -2.685000e+001  5.000000e+000
      vertex  3.200000e+001 -2.685000e+001  5.000000e+000
    endloop
  endfacet
  facet normal  0.000000e+000  0.000000e+000  1.000000e+000
    outer loop
      vertex -3.330000e+001 -2.565000e+001  5.000000e+000
      vertex  3.200000e+001 -2.685000e+001  5.000000e+000
      vertex  3.080000e+001 -2.565000e+001  5.000000e+000
    endloop
  endfacet
  facet normal  -0.000000e+000  0.000000e+000  1.000000e+000
    outer loop
      vertex -3.450000e+001  1.885000e+001  5.000000e+000
      vertex -3.630000e+001  1.885000e+001  5.000000e+000
      vertex -3.450000e+001  3.850000e+000  5.000000e+000
    endloop
  endfacet
  facet normal  0.000000e+000  0.000000e+000  1.000000e+000
    outer loop
      vertex -3.450000e+001  3.850000e+000  5.000000e+000
      vertex -3.630000e+001  1.885000e+001  5.000000e+000
      vertex -3.630000e+001  3.850000e+000  5.000000e+000
    endloop
  endfacet
  facet normal  0.000000e+000  0.000000e+000  1.000000e+000
    outer loop
      vertex  2.988579e+001  2.565000e+001  5.000000e+000
      vertex  3.038284e+001  2.685000e+001  5.000000e+000
      vertex -3.330000e+001  2.565000e+001  5.000000e+000
    endloop
  endfacet
  facet normal  0.000000e+000  -0.000000e+000  1.000000e+000
    outer loop
      vertex -3.330000e+001  2.565000e+001  5.000000e+000
      vertex  3.038284e+001  2.685000e+001  5.000000e+000
      vertex -3.450000e+001  2.685000e+001  5.000000e+000
    endloop
  endfacet
  facet normal  0.000000e+000  0.000000e+000  9.999999e-001
    outer loop
      vertex -3.330000e+001  2.565000e+001  5.000000e+000
      vertex -3.450000e+001  2.685000e+001  5.000000e+000
      vertex -3.450000e+001  1.885000e+001  5.000000e+000
    endloop
  endfacet
  facet normal  -0.000000e+000  0.000000e+000  1.000000e+000
    outer loop
      vertex  3.200000e+001  1.373284e+001  5.000000e+000
      vertex  3.080000e+001  1.323579e+001  5.000000e+000
      vertex  3.450000e+001  1.123284e+001  5.000000e+000
    endloop
  endfacet
  facet normal  0.000000e+000  0.000000e+000  1.000000e+000
    outer loop
      vertex  3.450000e+001  1.123284e+001  5.000000e+000
      vertex  3.080000e+001  1.323579e+001  5.000000e+000
      vertex  3.330000e+001  1.073579e+001  5.000000e+000
    endloop
  endfacet
  facet normal  -0.000000e+000  0.000000e+000  9.999999e-001
    outer loop
      vertex  3.450000e+001  1.123284e+001  5.000000e+000
      vertex  3.330000e+001  1.073579e+001  5.000000e+000
      vertex  3.450000e+001 -2.208284e+001  5.000000e+000
    endloop
  endfacet
  facet normal  0.000000e+000  0.000000e+000  1.000000e+000
    outer loop
      vertex  3.450000e+001 -2.208284e+001  5.000000e+000
      vertex  3.330000e+001  1.073579e+001  5.000000e+000
      vertex  3.330000e+001 -2.158579e+001  5.000000e+000
    endloop
  endfacet
  facet normal  0.000000e+000  0.000000e+000  1.000000e+000
    outer loop
      vertex  3.450000e+001 -2.208284e+001  5.000000e+000
      vertex  3.330000e+001 -2.158579e+001  5.000000e+000
      vertex  3.200000e+001 -2.458284e+001  5.000000e+000
    endloop
  endfacet
  facet normal  0.000000e+000  -0.000000e+000  1.000000e+000
    outer loop
      vertex  3.200000e+001 -2.458284e+001  5.000000e+000
      vertex  3.330000e+001 -2.158579e+001  5.000000e+000
      vertex  3.080000e+001 -2.408579e+001  5.000000e+000
    endloop
  endfacet
  facet normal  0.000000e+000  0.000000e+000  1.000000e+000
    outer loop
      vertex  3.200000e+001 -2.458284e+001  5.000000e+000
      vertex  3.080000e+001 -2.408579e+001  5.000000e+000
      vertex  3.200000e+001 -2.685000e+001  5.000000e+000
    endloop
  endfacet
  facet normal  0.000000e+000  0.000000e+000  9.999999e-001
    outer loop
      vertex  3.200000e+001 -2.685000e+001  5.000000e+000
      vertex  3.080000e+001 -2.408579e+001  5.000000e+000
      vertex  3.080000e+001 -2.565000e+001  5.000000e+000
    endloop
  endfacet
  facet normal  0.000000e+000 -1.000000e+000  0.000000e+000
    outer loop
      vertex -3.630000e+001  1.885000e+001  1.000000e+001
      vertex -3.630000e+001  1.885000e+001  5.000000e+000
      vertex -3.450000e+001  1.885000e+001  1.000000e+001
    endloop
  endfacet
  facet normal  0.000000e+000 -1.000000e+000  -0.000000e+000
    outer loop
      vertex -3.450000e+001  1.885000e+001  1.000000e+001
      vertex -3.630000e+001  1.885000e+001  5.000000e+000
      vertex -3.450000e+001  1.885000e+001  5.000000e+000
    endloop
  endfacet
  facet normal  0.000000e+000  1.000000e+000  0.000000e+000
    outer loop
      vertex -3.630000e+001 -2.445000e+001  5.000000e+000
      vertex -3.630000e+001 -2.445000e+001  1.000000e+001
      vertex -3.450000e+001 -2.445000e+001  5.000000e+000
    endloop
  endfacet
  facet normal  0.000000e+000  1.000000e+000  -0.000000e+000
    outer loop
      vertex -3.450000e+001 -2.445000e+001  5.000000e+000
      vertex -3.630000e+001 -2.445000e+001  1.000000e+001
      vertex -3.450000e+001 -2.445000e+001  1.000000e+001
    endloop
  endfacet
  facet normal -1.000000e+000  0.000000e+000  0.000000e+000
    outer loop
      vertex -3.630000e+001 -2.865000e+001  3.956791e-030
      vertex -3.630000e+001 -2.865000e+001  1.000000e+001
      vertex -3.630000e+001 -2.445000e+001  1.000000e+001
    endloop
  endfacet
  facet normal -1.000000e+000  0.000000e+000  -0.000000e+000
    outer loop
      vertex -3.630000e+001 -2.865000e+001  3.956791e-030
      vertex -3.630000e+001 -2.445000e+001  1.000000e+001
      vertex -3.630000e+001 -2.445000e+001  5.000000e+000
    endloop
  endfacet
  facet normal -1.000000e+000  0.000000e+000  -0.000000e+000
    outer loop
      vertex -3.630000e+001 -2.865000e+001  3.956791e-030
      vertex -3.630000e+001 -2.445000e+001  5.000000e+000
      vertex -3.630000e+001 -1.265000e+001  5.000000e+000
    endloop
  endfacet
  facet normal -9.999999e-001  0.000000e+000  -0.000000e+000
    outer loop
      vertex -3.630000e+001 -2.865000e+001  3.956791e-030
      vertex -3.630000e+001 -1.265000e+001  5.000000e+000
      vertex -3.630000e+001  3.850000e+000  5.000000e+000
    endloop
  endfacet
  facet normal -1.000000e+000  0.000000e+000  -0.000000e+000
    outer loop
      vertex -3.630000e+001 -2.865000e+001  3.956791e-030
      vertex -3.630000e+001  3.850000e+000  5.000000e+000
      vertex -3.630000e+001  1.885000e+001  5.000000e+000
    endloop
  endfacet
  facet normal -1.000000e+000  0.000000e+000  -0.000000e+000
    outer loop
      vertex -3.630000e+001 -2.865000e+001  3.956791e-030
      vertex -3.630000e+001  1.885000e+001  5.000000e+000
      vertex -3.630000e+001  2.865000e+001  4.429968e-030
    endloop
  endfacet
  facet normal -9.999999e-001  -0.000000e+000  0.000000e+000
    outer loop
      vertex -3.630000e+001 -1.265000e+001  1.000000e+001
      vertex -3.630000e+001  3.850000e+000  1.000000e+001
      vertex -3.630000e+001 -1.265000e+001  5.000000e+000
    endloop
  endfacet
  facet normal -9.999999e-001  0.000000e+000  0.000000e+000
    outer loop
      vertex -3.630000e+001 -1.265000e+001  5.000000e+000
      vertex -3.630000e+001  3.850000e+000  1.000000e+001
      vertex -3.630000e+001  3.850000e+000  5.000000e+000
    endloop
  endfacet
  facet normal -1.000000e+000  0.000000e+000  0.000000e+000
    outer loop
      vertex -3.630000e+001  2.865000e+001  1.000000e+001
      vertex -3.630000e+001  2.865000e+001  4.429968e-030
      vertex -3.630000e+001  1.885000e+001  1.000000e+001
    endloop
  endfacet
  facet normal -1.000000e+000  0.000000e+000  0.000000e+000
    outer loop
      vertex -3.630000e+001  1.885000e+001  1.000000e+001
      vertex -3.630000e+001  2.865000e+001  4.429968e-030
      vertex -3.630000e+001  1.885000e+001  5.000000e+000
    endloop
  endfacet
  facet normal  9.999999e-001  0.000000e+000  0.000000e+000
    outer loop
      vertex -3.330000e+001 -2.565000e+001  5.000000e+000
      vertex -3.330000e+001 -2.565000e+001  2.000000e+000
      vertex -3.330000e+001  2.565000e+001  5.000000e+000
    endloop
  endfacet
  facet normal  9.999999e-001  0.000000e+000  0.000000e+000
    outer loop
      vertex -3.330000e+001  2.565000e+001  5.000000e+000
      vertex -3.330000e+001 -2.565000e+001  2.000000e+000
      vertex -3.330000e+001  2.565000e+001  2.000000e+000
    endloop
  endfacet
  facet normal  1.231042e-030  6.130821e-031 -1.000000e+000
    outer loop
      vertex  3.380000e+001  2.597843e+001  0.000000e+000
      vertex  3.380000e+001  1.447843e+001 -7.050444e-030
      vertex  3.112843e+001  2.865000e+001 -1.650924e-030
    endloop
  endfacet
  facet normal -9.018293e-032  3.640097e-031 -1.000000e+000
    outer loop
      vertex  3.112843e+001  2.865000e+001 -1.650924e-030
      vertex  3.380000e+001  1.447843e+001 -7.050444e-030
      vertex -3.630000e+001  2.865000e+001  4.429968e-030
    endloop
  endfacet
  facet normal -1.995782e-031 -1.771164e-031 -1.000000e+000
    outer loop
      vertex -3.630000e+001  2.865000e+001  4.429968e-030
      vertex  3.380000e+001  1.447843e+001 -7.050444e-030
      vertex  3.380000e+001 -2.532843e+001  0.000000e+000
    endloop
  endfacet
  facet normal  2.879720e-030 -1.771163e-031 -1.000000e+000
    outer loop
      vertex  3.380000e+001  1.447843e+001 -7.050444e-030
      vertex  3.630000e+001  1.197843e+001  5.916457e-031
      vertex  3.380000e+001 -2.532843e+001  0.000000e+000
    endloop
  endfacet
  facet normal -1.404499e-030  1.099769e-031 -1.000000e+000
    outer loop
      vertex  3.380000e+001 -2.532843e+001  0.000000e+000
      vertex  3.630000e+001  1.197843e+001  5.916457e-031
      vertex  3.630000e+001 -2.282843e+001 -3.236305e-030
    endloop
  endfacet
  facet normal  3.901462e-028  8.257887e-033 -1.000000e+000
    outer loop
      vertex -3.630000e+001 -2.865000e+001  3.956791e-030
      vertex -3.630000e+001  2.865000e+001  4.429968e-030
      vertex  3.380000e+001 -2.865000e+001  2.735321e-026
    endloop
  endfacet
  facet normal -6.341193e-027 -8.235016e-027 -1.000000e+000
    outer loop
      vertex  3.380000e+001 -2.865000e+001  2.735321e-026
      vertex -3.630000e+001  2.865000e+001  4.429968e-030
      vertex  3.380000e+001 -2.532843e+001  0.000000e+000
    endloop
  endfacet
  facet normal -1.000000e+000  -0.000000e+000  0.000000e+000
    outer loop
      vertex  3.200000e+001  1.373284e+001  1.000000e+001
      vertex  3.200000e+001  2.523284e+001  1.000000e+001
      vertex  3.200000e+001  1.373284e+001  5.000000e+000
    endloop
  endfacet
  facet normal -1.000000e+000  0.000000e+000  0.000000e+000
    outer loop
      vertex  3.200000e+001  1.373284e+001  5.000000e+000
      vertex  3.200000e+001  2.523284e+001  1.000000e+001
      vertex  3.200000e+001  2.523284e+001  5.000000e+000
    endloop
  endfacet
  facet normal  1.000000e+000  0.000000e+000  0.000000e+000
    outer loop
      vertex  3.380000e+001 -2.865000e+001  1.000000e+001
      vertex  3.380000e+001 -2.865000e+001  2.735321e-026
      vertex  3.380000e+001 -2.532843e+001  1.000000e+001
    endloop
  endfacet
  facet normal  1.000000e+000  0.000000e+000  0.000000e+000
    outer loop
      vertex  3.380000e+001 -2.532843e+001  1.000000e+001
      vertex  3.380000e+001 -2.865000e+001  2.735321e-026
      vertex  3.380000e+001 -2.532843e+001  0.000000e+000
    endloop
  endfacet
  facet normal  7.071068e-001 -7.071068e-001  0.000000e+000
    outer loop
      vertex  3.380000e+001 -2.532843e+001  0.000000e+000
      vertex  3.630000e+001 -2.282843e+001 -3.236305e-030
      vertex  3.380000e+001 -2.532843e+001  1.000000e+001
    endloop
  endfacet
  facet normal  7.071068e-001 -7.071068e-001  0.000000e+000
    outer loop
      vertex  3.380000e+001 -2.532843e+001  1.000000e+001
      vertex  3.630000e+001 -2.282843e+001 -3.236305e-030
      vertex  3.630000e+001 -2.282843e+001  1.000000e+001
    endloop
  endfacet
  facet normal  1.000000e+000  0.000000e+000  0.000000e+000
    outer loop
      vertex  3.630000e+001 -2.282843e+001  1.000000e+001
      vertex  3.630000e+001 -2.282843e+001 -3.236305e-030
      vertex  3.630000e+001  1.197843e+001  1.000000e+001
    endloop
  endfacet
  facet normal  1.000000e+000  0.000000e+000  0.000000e+000
    outer loop
      vertex  3.630000e+001  1.197843e+001  1.000000e+001
      vertex  3.630000e+001 -2.282843e+001 -3.236305e-030
      vertex  3.630000e+001  1.197843e+001  5.916457e-031
    endloop
  endfacet
  facet normal  7.071068e-001  7.071068e-001  0.000000e+000
    outer loop
      vertex  3.630000e+001  1.197843e+001  5.916457e-031
      vertex  3.380000e+001  1.447843e+001 -7.050444e-030
      vertex  3.630000e+001  1.197843e+001  1.000000e+001
    endloop
  endfacet
  facet normal  7.071068e-001  7.071068e-001  0.000000e+000
    outer loop
      vertex  3.630000e+001  1.197843e+001  1.000000e+001
      vertex  3.380000e+001  1.447843e+001 -7.050444e-030
      vertex  3.380000e+001  1.447843e+001  1.000000e+001
    endloop
  endfacet
  facet normal  1.000000e+000  0.000000e+000  0.000000e+000
    outer loop
      vertex  3.380000e+001  1.447843e+001  1.000000e+001
      vertex  3.380000e+001  1.447843e+001 -7.050444e-030
      vertex  3.380000e+001  2.597843e+001  1.000000e+001
    endloop
  endfacet
  facet normal  1.000000e+000  0.000000e+000  0.000000e+000
    outer loop
      vertex  3.380000e+001  2.597843e+001  1.000000e+001
      vertex  3.380000e+001  1.447843e+001 -7.050444e-030
      vertex  3.380000e+001  2.597843e+001  0.000000e+000
    endloop
  endfacet
  facet normal  7.071068e-001  7.071068e-001  0.000000e+000
    outer loop
      vertex  3.380000e+001  2.597843e+001  0.000000e+000
      vertex  3.112843e+001  2.865000e+001 -1.650924e-030
      vertex  3.380000e+001  2.597843e+001  1.000000e+001
    endloop
  endfacet
  facet normal  7.071068e-001  7.071068e-001  0.000000e+000
    outer loop
      vertex  3.380000e+001  2.597843e+001  1.000000e+001
      vertex  3.112843e+001  2.865000e+001 -1.650924e-030
      vertex  3.112843e+001  2.865000e+001  1.000000e+001
    endloop
  endfacet
  facet normal  0.000000e+000 -1.000000e+000  0.000000e+000
    outer loop
      vertex -3.630000e+001 -2.865000e+001  1.000000e+001
      vertex -3.630000e+001 -2.865000e+001  3.956791e-030
      vertex  3.380000e+001 -2.865000e+001  1.000000e+001
    endloop
  endfacet
  facet normal  0.000000e+000 -1.000000e+000  -0.000000e+000
    outer loop
      vertex  3.380000e+001 -2.865000e+001  1.000000e+001
      vertex -3.630000e+001 -2.865000e+001  3.956791e-030
      vertex  3.380000e+001 -2.865000e+001  2.735321e-026
    endloop
  endfacet
  facet normal  0.000000e+000  9.999999e-001  -0.000000e+000
    outer loop
      vertex  3.112843e+001  2.865000e+001  1.000000e+001
      vertex  3.112843e+001  2.865000e+001 -1.650924e-030
      vertex -3.630000e+001  2.865000e+001  1.000000e+001
    endloop
  endfacet
  facet normal  0.000000e+000  9.999999e-001  0.000000e+000
    outer loop
      vertex -3.630000e+001  2.865000e+001  1.000000e+001
      vertex  3.112843e+001  2.865000e+001 -1.650924e-030
      vertex -3.630000e+001  2.865000e+001  4.429968e-030
    endloop
  endfacet
  facet normal  0.000000e+000  0.000000e+000  1.000000e+000
    outer loop
      vertex -3.330000e+001  2.565000e+001  2.000000e+000
      vertex -3.330000e+001 -2.565000e+001  2.000000e+000
      vertex  3.080000e+001 -2.565000e+001  2.000000e+000
    endloop
  endfacet
  facet normal  0.000000e+000  -0.000000e+000  1.000000e+000
    outer loop
      vertex -3.330000e+001  2.565000e+001  2.000000e+000
      vertex  3.080000e+001 -2.565000e+001  2.000000e+000
      vertex  3.080000e+001 -2.408579e+001  2.000000e+000
    endloop
  endfacet
  facet normal  0.000000e+000  -0.000000e+000  1.000000e+000
    outer loop
      vertex -3.330000e+001  2.565000e+001  2.000000e+000
      vertex  3.080000e+001 -2.408579e+001  2.000000e+000
      vertex  3.080000e+001  1.323579e+001  2.000000e+000
    endloop
  endfacet
  facet normal  0.000000e+000  -0.000000e+000  1.000000e+000
    outer loop
      vertex -3.330000e+001  2.565000e+001  2.000000e+000
      vertex  3.080000e+001  1.323579e+001  2.000000e+000
      vertex  3.080000e+001  2.473579e+001  2.000000e+000
    endloop
  endfacet
  facet normal  0.000000e+000  0.000000e+000  1.000000e+000
    outer loop
      vertex -3.330000e+001  2.565000e+001  2.000000e+000
      vertex  3.080000e+001  2.473579e+001  2.000000e+000
      vertex  2.988579e+001  2.565000e+001  2.000000e+000
    endloop
  endfacet
  facet normal  0.000000e+000  0.000000e+000  1.000000e+000
    outer loop
      vertex  3.080000e+001 -2.408579e+001  2.000000e+000
      vertex  3.330000e+001 -2.158579e+001  2.000000e+000
      vertex  3.080000e+001  1.323579e+001  2.000000e+000
    endloop
  endfacet
  facet normal  0.000000e+000  0.000000e+000  1.000000e+000
    outer loop
      vertex  3.080000e+001  1.323579e+001  2.000000e+000
      vertex  3.330000e+001 -2.158579e+001  2.000000e+000
      vertex  3.330000e+001  1.073579e+001  2.000000e+000
    endloop
  endfacet
  facet normal  0.000000e+000  9.999999e-001  -0.000000e+000
    outer loop
      vertex  3.080000e+001 -2.565000e+001  5.000000e+000
      vertex  3.080000e+001 -2.565000e+001  2.000000e+000
      vertex -3.330000e+001 -2.565000e+001  5.000000e+000
    endloop
  endfacet
  facet normal  0.000000e+000  9.999999e-001  0.000000e+000
    outer loop
      vertex -3.330000e+001 -2.565000e+001  5.000000e+000
      vertex  3.080000e+001 -2.565000e+001  2.000000e+000
      vertex -3.330000e+001 -2.565000e+001  2.000000e+000
    endloop
  endfacet
  facet normal -1.000000e+000  0.000000e+000  0.000000e+000
    outer loop
      vertex  3.080000e+001 -2.408579e+001  5.000000e+000
      vertex  3.080000e+001 -2.408579e+001  2.000000e+000
      vertex  3.080000e+001 -2.565000e+001  5.000000e+000
    endloop
  endfacet
  facet normal -1.000000e+000  0.000000e+000  0.000000e+000
    outer loop
      vertex  3.080000e+001 -2.565000e+001  5.000000e+000
      vertex  3.080000e+001 -2.408579e+001  2.000000e+000
      vertex  3.080000e+001 -2.565000e+001  2.000000e+000
    endloop
  endfacet
  facet normal -7.071068e-001  7.071068e-001  0.000000e+000
    outer loop
      vertex  3.330000e+001 -2.158579e+001  5.000000e+000
      vertex  3.330000e+001 -2.158579e+001  2.000000e+000
      vertex  3.080000e+001 -2.408579e+001  5.000000e+000
    endloop
  endfacet
  facet normal -7.071068e-001  7.071068e-001  0.000000e+000
    outer loop
      vertex  3.080000e+001 -2.408579e+001  5.000000e+000
      vertex  3.330000e+001 -2.158579e+001  2.000000e+000
      vertex  3.080000e+001 -2.408579e+001  2.000000e+000
    endloop
  endfacet
  facet normal -1.000000e+000  0.000000e+000  0.000000e+000
    outer loop
      vertex  3.330000e+001  1.073579e+001  5.000000e+000
      vertex  3.330000e+001  1.073579e+001  2.000000e+000
      vertex  3.330000e+001 -2.158579e+001  5.000000e+000
    endloop
  endfacet
  facet normal -1.000000e+000  0.000000e+000  0.000000e+000
    outer loop
      vertex  3.330000e+001 -2.158579e+001  5.000000e+000
      vertex  3.330000e+001  1.073579e+001  2.000000e+000
      vertex  3.330000e+001 -2.158579e+001  2.000000e+000
    endloop
  endfacet
  facet normal -7.071068e-001 -7.071068e-001  0.000000e+000
    outer loop
      vertex  3.080000e+001  1.323579e+001  5.000000e+000
      vertex  3.080000e+001  1.323579e+001  2.000000e+000
      vertex  3.330000e+001  1.073579e+001  5.000000e+000
    endloop
  endfacet
  facet normal -7.071068e-001 -7.071068e-001  -0.000000e+000
    outer loop
      vertex  3.330000e+001  1.073579e+001  5.000000e+000
      vertex  3.080000e+001  1.323579e+001  2.000000e+000
      vertex  3.330000e+001  1.073579e+001  2.000000e+000
    endloop
  endfacet
  facet normal -1.000000e+000  0.000000e+000  0.000000e+000
    outer loop
      vertex  3.080000e+001  2.473579e+001  5.000000e+000
      vertex  3.080000e+001  2.473579e+001  2.000000e+000
      vertex  3.080000e+001  1.323579e+001  5.000000e+000
    endloop
  endfacet
  facet normal -1.000000e+000  0.000000e+000  0.000000e+000
    outer loop
      vertex  3.080000e+001  1.323579e+001  5.000000e+000
      vertex  3.080000e+001  2.473579e+001  2.000000e+000
      vertex  3.080000e+001  1.323579e+001  2.000000e+000
    endloop
  endfacet
  facet normal -7.071068e-001 -7.071068e-001  0.000000e+000
    outer loop
      vertex  2.988579e+001  2.565000e+001  2.000000e+000
      vertex  3.080000e+001  2.473579e+001  2.000000e+000
      vertex  2.988579e+001  2.565000e+001  5.000000e+000
    endloop
  endfacet
  facet normal -7.071068e-001 -7.071068e-001  0.000000e+000
    outer loop
      vertex  2.988579e+001  2.565000e+001  5.000000e+000
      vertex  3.080000e+001  2.473579e+001  2.000000e+000
      vertex  3.080000e+001  2.473579e+001  5.000000e+000
    endloop
  endfacet
  facet normal  0.000000e+000 -9.999999e-001  0.000000e+000
    outer loop
      vertex -3.330000e+001  2.565000e+001  5.000000e+000
      vertex -3.330000e+001  2.565000e+001  2.000000e+000
      vertex  2.988579e+001  2.565000e+001  5.000000e+000
    endloop
  endfacet
  facet normal  0.000000e+000 -9.999999e-001  -0.000000e+000
    outer loop
      vertex  2.988579e+001  2.565000e+001  5.000000e+000
      vertex -3.330000e+001  2.565000e+001  2.000000e+000
      vertex  2.988579e+001  2.565000e+001  2.000000e+000
    endloop
  endfacet
endsolid CATIA STL
